<svg width="256" height="334" viewBox="0 0 256 334" fill="none" xmlns="http://www.w3.org/2000/svg">
<path d="M67.8 310C67.288 310 66.808 309.808 66.36 309.424C65.976 309.04 65.784 308.56 65.784 307.984C65.784 307.408 66.008 306.832 66.456 306.256L83.16 284.464L67.512 263.824C67.064 263.312 66.84 262.736 66.84 262.096C66.84 261.52 67.032 261.04 67.416 260.656C67.8 260.272 68.28 260.08 68.856 260.08H73.752C74.712 260.08 75.544 260.592 76.248 261.616L89.016 278.224L101.784 261.712C102.168 261.2 102.52 260.816 102.84 260.56C103.224 260.24 103.704 260.08 104.28 260.08H108.984C109.56 260.08 110.04 260.272 110.424 260.656C110.808 261.04 111 261.52 111 262.096C111 262.736 110.776 263.312 110.328 263.824L94.488 284.656L111.192 306.256C111.64 306.832 111.864 307.408 111.864 307.984C111.864 308.56 111.672 309.04 111.288 309.424C110.904 309.808 110.424 310 109.848 310H104.76C103.8 310 102.968 309.52 102.264 308.56L88.824 290.992L75.192 308.56C74.808 309.008 74.424 309.36 74.04 309.616C73.72 309.872 73.272 310 72.696 310H67.8ZM123.294 250.768C122.654 250.768 122.11 250.576 121.662 250.192C121.278 249.744 121.086 249.2 121.086 248.56V243.376C121.086 242.736 121.278 242.192 121.662 241.744C122.11 241.296 122.654 241.072 123.294 241.072H129.342C129.982 241.072 130.526 241.296 130.974 241.744C131.422 242.192 131.646 242.736 131.646 243.376V248.56C131.646 249.2 131.422 249.744 130.974 250.192C130.526 250.576 129.982 250.768 129.342 250.768H123.294ZM124.062 310C123.422 310 122.878 309.808 122.43 309.424C122.046 308.976 121.854 308.432 121.854 307.792V262.288C121.854 261.648 122.046 261.136 122.43 260.752C122.878 260.304 123.422 260.08 124.062 260.08H128.67C129.31 260.08 129.822 260.304 130.206 260.752C130.654 261.136 130.878 261.648 130.878 262.288V307.792C130.878 308.432 130.654 308.976 130.206 309.424C129.822 309.808 129.31 310 128.67 310H124.062ZM165.072 310.96C158.48 310.96 153.2 308.944 149.232 304.912C145.328 300.816 143.184 295.248 142.8 288.208L142.704 284.944L142.8 281.776C143.248 274.864 145.424 269.36 149.328 265.264C153.296 261.168 158.512 259.12 164.976 259.12C172.08 259.12 177.584 261.392 181.488 265.936C185.392 270.416 187.344 276.496 187.344 284.176V285.808C187.344 286.448 187.12 286.992 186.672 287.44C186.288 287.824 185.776 288.016 185.136 288.016H151.92V288.88C152.112 293.04 153.36 296.592 155.664 299.536C158.032 302.416 161.136 303.856 164.976 303.856C167.92 303.856 170.32 303.28 172.176 302.128C174.096 300.912 175.504 299.664 176.4 298.384C176.976 297.616 177.392 297.168 177.648 297.04C177.968 296.848 178.512 296.752 179.28 296.752H183.984C184.56 296.752 185.04 296.912 185.424 297.232C185.808 297.552 186 298 186 298.576C186 299.984 185.104 301.68 183.312 303.664C181.584 305.648 179.12 307.376 175.92 308.848C172.784 310.256 169.168 310.96 165.072 310.96ZM178.224 281.392V281.104C178.224 276.688 177.008 273.104 174.576 270.352C172.208 267.536 169.008 266.128 164.976 266.128C160.944 266.128 157.744 267.536 155.376 270.352C153.072 273.104 151.92 276.688 151.92 281.104V281.392H178.224ZM163.536 252.88C162.896 252.88 162.352 252.816 161.904 252.688C161.456 252.496 160.944 252.08 160.368 251.44L151.536 242.608C150.832 241.904 150.48 241.296 150.48 240.784C150.48 240.016 150.96 239.632 151.92 239.632H154.416C155.44 239.632 156.336 239.856 157.104 240.304L164.976 245.776L172.848 240.304C173.616 239.856 174.512 239.632 175.536 239.632H178.032C178.992 239.632 179.472 240.016 179.472 240.784C179.472 241.296 179.12 241.904 178.416 242.608L169.584 251.44C168.944 252.08 168.4 252.496 167.952 252.688C167.568 252.816 167.056 252.88 166.416 252.88H163.536Z" fill="#985700"/>
<path d="M181.839 87.8744C202.535 108.324 213.171 118.622 213.746 118.767C214.752 118.912 215.758 118.404 216.764 117.244C218.201 115.503 218.129 112.022 216.549 106.801C215.111 100.275 205.841 90.775 188.738 78.3021L179.252 71.3405C164.592 60.753 153.166 52.9937 144.973 48.0626C143.967 47.4825 143.321 47.9176 143.033 49.3679C142.889 51.1083 143.464 52.5586 144.758 53.7189C153.956 61.5507 163.586 70.2528 173.647 79.825L181.839 87.8744Z" fill="#985700"/>
<path d="M203.14 177.488C206.98 168.76 211.204 163.017 215.813 160.261C218.271 157.505 218.424 154.748 216.274 151.992C213.816 150.001 208.593 147.015 200.605 143.034C197.84 141.655 194.845 141.655 191.619 143.034C179.944 147.628 163.738 152.068 143 156.356L145.995 163.936C147.992 163.324 161.894 160.261 187.702 154.748C190.927 153.829 193.155 154.059 194.384 155.437C195.459 156.509 195.843 158.041 195.536 160.031C194.153 165.697 192.694 170.904 191.158 175.651L203.14 177.488Z" fill="#985700"/>
<path d="M188.725 78.5348C193.613 71.0536 198.501 61.8459 203.389 50.9119C205.258 46.8835 207.558 42.8552 210.289 38.8269C211.583 37.3882 211.799 35.8775 210.936 34.295C210.073 32.5685 207.342 30.3386 202.742 27.6051C199.579 25.7348 197.279 24.8715 195.841 25.0154C193.685 25.447 192.679 26.8138 192.822 29.1157C193.685 42.0639 189.157 56.235 179.237 71.629L173.631 80.0454C163.711 92.1304 149.551 105.007 131.15 118.674C130.144 119.681 130.072 120.473 130.934 121.048C131.941 121.48 133.378 121.408 135.247 120.832C145.31 116.948 154.726 111.769 163.496 105.294C170.54 100.403 176.65 94.6481 181.825 88.0301L188.725 78.5348Z" fill="#985700"/>
<path d="M74.9135 40.2489C79.8809 44.685 84.9371 49.4907 90.0819 54.6661C92.7431 57.0689 95.5816 58.2703 98.5976 58.2703C100.726 58.0855 102.234 56.6992 103.121 54.1116C104.186 51.1542 103.742 46.6257 101.791 40.5262C99.662 34.2418 90.1706 29.2512 73.3168 25.5545C70.4783 24.8152 68.3494 24.8152 66.9301 25.5545C65.8656 26.2938 65.5108 27.9574 65.8656 30.5451C66.5753 32.9479 69.5912 36.1825 74.9135 40.2489Z" fill="#985700"/>
<path d="M40.0527 112.057C31.3596 114.46 24.6181 115.846 19.8281 116.216C17.1669 116.216 15.6589 116.863 15.3041 118.157C14.5945 119.451 15.1267 120.929 16.9008 122.593C23.9972 127.584 30.3839 128.693 36.061 125.92C55.7533 117.418 66.1318 113.259 67.1962 113.444C67.3736 113.444 67.7284 113.721 68.2607 114.275C69.5025 115.015 69.5025 125.273 68.2607 145.05C68.0833 165.752 65.0673 185.437 59.2128 204.105C56.3743 209.281 58.6806 216.674 66.1318 226.286C67.9058 228.504 69.6799 228.966 71.454 227.672C72.6959 226.378 74.3813 223.605 76.5102 219.354C83.4291 209.928 94.1624 196.989 108.71 180.539C110.839 178.69 111.637 177.027 111.105 175.548C110.927 174.254 109.863 174.347 107.912 175.826C100.46 181.001 93.1866 186.454 86.0903 192.183C78.6391 198.838 75.5344 197.266 76.7763 187.47C76.7763 175.641 78.9939 155.032 83.4291 125.643C84.1388 121.207 86.4451 116.955 90.3481 112.889C92.6544 111.041 92.9205 108.915 91.1464 106.512C89.3723 103.555 85.1145 100.505 78.373 97.363C76.2441 96.0691 73.6716 96.4388 70.6557 98.472C57.7048 105.311 47.5038 109.839 40.0527 112.057Z" fill="#985700"/>
<path d="M140 190.76C141.956 191.636 146.168 191.709 152.638 190.979C166.78 187.915 183.329 185.215 202.285 182.88C203.639 183.026 204.843 182.296 205.896 180.691C206.046 179.232 204.692 177.919 201.834 176.751H201.608L189.873 175C177.687 177.335 161.288 180.399 140.677 184.194L140 190.76Z" fill="#985700"/>
<path d="M231.924 208.517C229.005 203.484 226.24 196.544 223.628 187.699C223.167 185.411 222.322 183.962 221.092 183.352C220.017 182.742 219.249 183.886 218.788 186.783C217.405 197.917 215.868 204.475 214.178 206.458C209.415 212.101 196.509 215.761 175.459 217.439C163.936 217.591 155.716 216.905 150.799 215.38C146.497 213.397 143.731 211.033 142.502 208.288C141.427 204.933 140.889 199.518 140.889 192.045L141.58 185.182C142.502 177.251 143.885 171.227 145.729 167.109C146.19 166.041 146.497 164.974 146.651 163.906L143.655 156.357C136.741 151.171 132.208 148.807 130.057 149.265C127.752 150.18 127.214 151.858 128.444 154.298C131.209 159.788 132.208 166.575 131.44 174.659C130.364 197.078 131.824 211.109 135.819 216.752C140.428 222.701 149.34 226.208 162.553 227.276C172.386 228.191 184.909 227.886 200.12 226.361C213.948 224.836 223.474 222.472 228.698 219.269C233 216.524 234.076 212.94 231.924 208.517Z" fill="#985700"/>
</svg>
